<?xml version="1.0" standalone="no"?>
<!DOCTYPE svg PUBLIC "-//W3C//DTD SVG 20010904//EN"
 "http://www.w3.org/TR/2001/REC-SVG-20010904/DTD/svg10.dtd">
<svg version="1.0" xmlns="http://www.w3.org/2000/svg"
 width="1024.000000pt" height="1024.000000pt" viewBox="0 0 1024.000000 1024.000000"
 preserveAspectRatio="xMidYMid meet">
<metadata>
Created by potrace 1.14, written by Peter Selinger 2001-2017
</metadata>
<g transform="translate(0.000000,1024.000000) scale(0.100000,-0.100000)"
fill="#000000" stroke="none">
<path d="M0 5120 l0 -5120 5120 0 5120 0 0 5120 0 5120 -5120 0 -5120 0 0
-5120z m2780 3835 c0 -377 -3 -575 -10 -575 -7 0 -10 198 -10 575 0 377 3 575
10 575 7 0 10 -198 10 -575z m4200 438 c0 -71 -5 -135 -10 -143 -7 -10 -10 32
-10 128 0 88 4 142 10 142 6 0 10 -49 10 -127z m-3750 -43 c0 -136 -2 -160
-15 -160 -13 0 -15 24 -15 160 0 136 2 160 15 160 13 0 15 -24 15 -160z m2949
73 c1 -7 -3 -13 -9 -13 -5 0 -10 17 -9 38 1 33 2 34 9 12 4 -14 8 -31 9 -37z
m-12 -265 c-1 -40 -3 -10 -3 67 0 77 1 110 3 73 2 -37 2 -100 0 -140z m-4867
-348 c0 -19 -7 -20 -90 -20 -49 0 -90 2 -90 4 0 2 -3 11 -6 20 -5 14 6 16 90
16 89 0 96 -1 96 -20z m260 10 c0 -12 -199 -10 -206 2 -3 5 40 8 100 7 58 -1
106 -5 106 -9z m977 0 c-9 -6 -15 -15 -12 -21 4 -5 -9 -9 -27 -8 -31 1 -32 1
-8 9 15 5 -33 8 -122 9 -82 1 -148 4 -148 9 0 4 75 8 168 10 124 2 162 0 149
-8z m-857 -15 c0 -13 -26 -15 -170 -15 -93 0 -170 3 -170 8 0 4 74 6 165 4
110 -2 165 1 165 8 0 5 2 10 5 10 3 0 5 -7 5 -15z m-130 -105 c0 -29 -2 -30
-42 -29 l-43 2 40 8 c27 5 13 6 -40 2 -44 -2 -95 -6 -112 -7 -18 -1 -33 3 -33
8 0 6 -5 5 -12 -2 -15 -15 -72 -16 -63 -2 3 6 -1 10 -9 10 -9 0 -16 -5 -16
-11 0 -7 -7 -8 -17 -4 -10 4 -32 7 -49 6 -26 -1 -32 3 -36 24 l-5 25 218 0
219 0 0 -30z m988 23 c-10 -2 -26 -2 -35 0 -10 3 -2 5 17 5 19 0 27 -2 18 -5z
m-511 -19 c-3 -3 -12 -4 -19 -1 -8 3 -5 6 6 6 11 1 17 -2 13 -5z m171 -1 c-21
-2 -55 -2 -75 0 -21 2 -4 4 37 4 41 0 58 -2 38 -4z m79 1 c-3 -3 -12 -4 -19
-1 -8 3 -5 6 6 6 11 1 17 -2 13 -5z m86 -1 c-13 -2 -35 -2 -50 0 -16 2 -5 4
22 4 28 0 40 -2 28 -4z m197 -9 c0 -9 -8 -12 -22 -10 -13 3 -49 5 -80 5 -33 1
-58 5 -58 11 0 7 30 10 80 9 60 -1 80 -5 80 -15z m650 -144 c0 -87 -4 -140
-10 -140 -6 0 -10 53 -10 140 0 87 4 140 10 140 6 0 10 -53 10 -140z m3770 35
c0 -63 -4 -105 -10 -105 -6 0 -10 42 -10 105 0 63 4 105 10 105 6 0 10 -42 10
-105z m-5640 25 c-25 -4 -36 -8 -25 -9 12 -2 15 -5 7 -8 -6 -2 -10 -9 -6 -14
3 -5 -37 -9 -95 -9 l-101 0 0 25 0 25 133 -2 c91 -1 118 -3 87 -8z m175 3
c-11 -3 -23 -10 -27 -17 -5 -7 -8 -5 -8 7 0 12 7 17 28 16 21 -1 22 -2 7 -6z
m1045 -18 l0 -25 -162 2 -163 2 145 6 c80 3 134 8 120 11 -23 6 -22 6 7 8 17
0 34 -5 36 -11 3 -7 6 -3 6 10 1 30 11 28 11 -3z m-1175 -5 c-3 -5 3 -10 14
-10 10 0 22 6 24 13 3 7 6 5 6 -5 1 -15 -7 -18 -51 -17 -29 1 -43 4 -30 6 12
2 22 9 22 14 0 5 5 9 11 9 5 0 7 -4 4 -10z m170 -13 c11 -2 -2 -5 -30 -6 -47
-1 -48 0 -25 12 14 7 27 10 30 6 3 -4 14 -9 25 -12z m3763 -54 c125 -88 416
-314 442 -342 3 -3 37 -33 75 -66 39 -33 72 -62 75 -65 3 -3 25 -23 50 -44 25
-22 101 -92 170 -156 69 -64 145 -134 170 -156 49 -43 83 -82 86 -98 1 -6 21
-63 43 -126 23 -63 66 -187 97 -275 52 -148 74 -198 74 -167 0 7 9 22 20 34
11 12 20 16 20 9 0 -7 5 -9 10 -6 6 4 10 -7 10 -25 0 -17 4 -29 9 -26 5 4 12
0 15 -6 4 -9 8 -10 11 -2 8 15 53 -5 59 -26 3 -8 17 -82 31 -165 36 -202 102
-453 174 -665 53 -157 123 -327 141 -340 21 -16 20 -70 -2 -70 -5 0 -6 5 -3
11 4 6 1 9 -6 7 -8 -1 -15 1 -16 6 -1 5 -5 12 -11 15 -12 8 -160 227 -185 276
-40 76 -68 151 -166 445 -98 293 -251 692 -312 811 -48 96 -94 152 -250 304
-181 176 -480 435 -502 435 -4 0 -7 -105 -7 -232 0 -128 -4 -239 -9 -247 -5
-8 -7 94 -4 238 3 194 2 256 -8 267 -19 23 -242 174 -336 228 -101 58 -90 63
-293 -114 -42 -36 -95 -81 -119 -100 -46 -38 -126 -80 -153 -80 -9 0 -19 -4
-22 -9 -3 -5 -30 -15 -58 -21 -29 -7 -116 -37 -193 -65 -200 -75 -225 -86
-225 -96 0 -5 -5 -9 -10 -9 -12 0 -69 -55 -139 -135 -25 -27 -147 -156 -272
-285 -216 -224 -310 -328 -312 -347 -1 -15 -14 -67 -91 -353 -43 -157 -78
-300 -79 -318 -2 -24 -14 -46 -44 -78 -24 -24 -43 -51 -43 -59 0 -8 -4 -15 -9
-15 -14 0 -67 -127 -141 -340 -39 -113 -75 -213 -81 -223 -5 -9 -19 -42 -30
-72 -18 -48 -24 -55 -48 -55 l-27 0 1 83 c2 88 -1 79 158 447 74 171 150 389
211 610 53 190 76 273 92 334 18 70 18 70 222 290 238 256 334 367 327 375 -3
2 -19 -11 -36 -30 -159 -176 -255 -277 -261 -273 -4 3 -8 11 -8 18 0 16 112
151 201 242 38 39 69 76 69 81 0 13 -29 111 -41 138 -14 33 -69 199 -69 210 0
5 11 -2 25 -17 14 -15 25 -30 25 -33 0 -8 60 -64 81 -75 26 -15 43 13 35 59
-3 21 -20 72 -37 115 -17 42 -29 81 -27 87 2 5 26 -18 54 -53 28 -35 56 -62
62 -61 7 2 11 0 9 -5 -1 -4 3 -7 8 -7 14 0 10 29 -18 120 -14 44 -23 82 -20
85 2 3 14 -9 26 -25 52 -72 102 -115 170 -149 89 -43 196 -86 214 -86 7 0 77
21 155 46 166 54 192 71 347 229 58 59 146 141 195 182 50 41 100 84 111 94
29 26 65 17 143 -38z m-4128 -28 c0 -22 -4 -25 -35 -25 -31 0 -35 3 -35 25 0
22 4 25 35 25 31 0 35 -3 35 -25z m120 -3 c0 -26 -2 -27 -38 -24 -35 3 -38 6
-34 28 4 20 10 24 38 24 30 0 34 -3 34 -28z m790 18 l-125 -6 100 -4 c55 -2
84 -5 65 -8 -29 -4 -32 -6 -15 -12 14 -6 3 -8 -35 -8 -49 1 -51 1 -20 8 22 5
-9 7 -85 7 -76 0 -107 -2 -85 -7 32 -7 30 -7 -20 -9 -39 0 -51 2 -40 9 12 8 9
10 -12 10 -16 0 -28 -4 -28 -10 0 -6 -37 -10 -90 -10 -53 0 -90 4 -90 10 0 6
-15 10 -32 9 -31 -1 -32 -1 -8 -9 16 -5 -21 -8 -97 -9 l-123 -1 0 25 0 25 433
-2 c254 -1 381 -4 307 -8z m454 -25 c5 -13 -21 -15 -197 -14 -111 1 -194 3
-184 6 9 2 15 9 12 14 -4 5 68 9 178 9 155 0 186 -2 191 -15z m-759 -85 l-150
-5 130 -6 130 -5 -162 -2 c-121 -1 -163 1 -167 11 -5 10 -7 10 -12 0 -3 -8
-24 -13 -50 -13 -28 0 -43 4 -39 10 3 6 2 10 -3 10 -15 0 -22 -28 -9 -33 7 -3
-67 -5 -164 -6 l-177 -2 -4 26 -5 25 416 -2 c270 -1 363 -4 266 -8z m732 -17
c-3 -3 -11 -2 -17 2 -9 6 -9 10 1 16 14 8 27 -7 16 -18z m20 -10 c-3 -10 -5
-4 -5 12 0 17 2 24 5 18 2 -7 2 -21 0 -30z m-594 10 c-7 -2 -21 -2 -30 0 -10
3 -4 5 12 5 17 0 24 -2 18 -5z m-498 -82 c-27 -4 -25 -6 18 -11 26 -3 48 -9
48 -15 0 -16 -75 -23 -243 -24 l-158 -1 0 30 0 30 183 -1 c100 -1 169 -4 152
-8z m1062 3 c-3 -3 -12 -4 -19 -1 -8 3 -5 6 6 6 11 1 17 -2 13 -5z m-264 -51
c-7 -2 -21 -2 -30 0 -10 3 -4 5 12 5 17 0 24 -2 18 -5z m70 0 c-7 -2 -21 -2
-30 0 -10 3 -4 5 12 5 17 0 24 -2 18 -5z m165 0 c-10 -2 -28 -2 -40 0 -13 2
-5 4 17 4 22 1 32 -1 23 -4z m-1083 -63 c-4 -6 15 -10 49 -10 43 0 56 -3 56
-15 0 -13 -28 -15 -193 -15 -107 0 -196 3 -199 6 -3 3 -4 14 -1 25 5 18 15 19
150 19 93 0 142 -4 138 -10z m150 -20 c-4 -6 111 -11 327 -13 l333 -2 -337 -3
c-186 -1 -338 2 -338 6 0 9 10 22 17 22 2 0 1 -4 -2 -10z m72 4 c-3 -3 -12 -4
-19 -1 -8 3 -5 6 6 6 11 1 17 -2 13 -5z m80 0 c-3 -3 -12 -4 -19 -1 -8 3 -5 6
6 6 11 1 17 -2 13 -5z m166 -1 c-7 -2 -19 -2 -25 0 -7 3 -2 5 12 5 14 0 19 -2
13 -5z m85 0 c-10 -2 -28 -2 -40 0 -13 2 -5 4 17 4 22 1 32 -1 23 -4z m59 1
c-3 -3 -12 -4 -19 -1 -8 3 -5 6 6 6 11 1 17 -2 13 -5z m341 -21 c-10 -2 -28
-2 -40 0 -13 2 -5 4 17 4 22 1 32 -1 23 -4z m80 0 c-10 -2 -26 -2 -35 0 -10 3
-2 5 17 5 19 0 27 -2 18 -5z m3847 -110 c83 -238 135 -400 135 -419 0 -30 -15
-31 -34 -1 -14 21 -116 364 -129 435 -10 48 9 39 28 -15z m-4990 28 c-27 -4 0
-8 80 -11 113 -6 110 -6 -67 -8 -161 -2 -188 0 -188 13 0 13 18 15 108 13 64
-1 91 -4 67 -7z m29 -83 c174 -2 189 -4 202 -22 7 -11 11 -22 7 -25 -3 -3 -8
0 -11 8 -3 9 -7 10 -11 2 -5 -7 -74 -13 -199 -17 l-192 -6 0 37 c0 20 4 34 8
31 5 -3 93 -6 196 -8z m276 -25 c0 -7 5 -13 10 -13 6 0 10 5 10 10 0 19 26 10
27 -10 2 -17 -4 -20 -38 -20 -34 0 -39 3 -39 23 0 14 6 24 15 24 8 0 15 -6 15
-14z m380 1 c0 -2 -11 -4 -25 -4 -14 0 -25 4 -25 9 0 4 11 6 25 3 14 -2 25 -6
25 -8z m85 6 c6 0 12 -7 12 -15 0 -10 -4 -12 -12 -5 -6 5 -24 8 -40 7 -16 -1
-30 4 -33 12 -4 11 2 13 28 8 18 -4 38 -7 45 -7z m113 -7 c-15 -2 -42 -2 -60
0 -18 2 -6 4 27 4 33 0 48 -2 33 -4z m815 -56 c-9 -28 -17 -58 -19 -65 -2 -7
-9 -10 -15 -6 -13 7 -7 46 15 99 23 54 37 34 19 -28z m-1266 37 c-3 -3 -12 -4
-19 -1 -8 3 -5 6 6 6 11 1 17 -2 13 -5z m223 2 c0 -3 -4 -8 -10 -11 -5 -3 -10
-1 -10 4 0 6 5 11 10 11 6 0 10 -2 10 -4z m40 -6 c0 -5 -2 -10 -4 -10 -3 0 -8
5 -11 10 -3 6 -1 10 4 10 6 0 11 -4 11 -10z m157 4 c-3 -3 -12 -4 -19 -1 -8 3
-5 6 6 6 11 1 17 -2 13 -5z m-492 -72 c-5 -4 -10 -14 -10 -22 0 -12 -17 -15
-83 -17 -47 -2 -81 1 -77 6 3 5 -3 8 -12 6 -52 -11 -242 -12 -252 -2 -7 7 -11
7 -11 1 0 -6 -22 -12 -48 -13 -44 -1 -48 1 -50 24 l-2 25 278 0 c152 0 273 -4
267 -8z m275 -2 c-118 -3 -188 -7 -156 -8 54 -2 58 -3 40 -16 -10 -8 -21 -11
-24 -7 -3 4 -25 7 -50 5 -25 -1 -52 2 -60 7 -12 6 -9 9 10 10 l25 1 -25 8
c-14 4 83 7 215 7 l240 -1 -215 -6z m247 4 c-3 -3 -12 -4 -19 -1 -8 3 -5 6 6
6 11 1 17 -2 13 -5z m-207 -24 c0 -10 -117 -6 -127 4 -3 3 24 5 60 5 37 -1 67
-5 67 -9z m60 0 c0 -5 -9 -10 -20 -10 -11 0 -20 5 -20 10 0 6 9 10 20 10 11 0
20 -4 20 -10z m40 0 c0 -5 -2 -10 -4 -10 -3 0 -8 5 -11 10 -3 6 -1 10 4 10 6
0 11 -4 11 -10z m57 -6 c-3 -3 -12 -4 -19 -1 -8 3 -5 6 6 6 11 1 17 -2 13 -5z
m-967 -54 c0 -5 -6 -10 -12 -10 -10 0 -9 -3 1 -9 9 -6 10 -11 2 -15 -6 -4 -11
-12 -11 -17 0 -6 5 -7 10 -4 6 3 10 1 10 -4 0 -6 -9 -11 -20 -11 -17 0 -20 7
-20 40 0 33 3 40 20 40 11 0 20 -4 20 -10z m50 -35 c0 -19 -3 -35 -7 -35 -5 0
-8 16 -8 35 0 19 3 35 8 35 4 0 7 -16 7 -35z m60 -1 c0 -28 -3 -35 -17 -32
-12 2 -19 14 -21 36 -3 27 0 32 17 32 17 0 21 -6 21 -36z m53 15 c7 -27 -1
-49 -19 -49 -9 0 -14 12 -14 35 0 39 24 49 33 14z m32 -11 c-8 -46 -15 -48
-15 -5 0 21 5 37 10 37 6 0 8 -13 5 -32z m35 -3 c0 -19 -4 -35 -10 -35 -5 0
-10 16 -10 35 0 19 5 35 10 35 6 0 10 -16 10 -35z m70 15 c0 -11 -2 -20 -4
-20 -2 0 -6 9 -9 20 -3 11 -1 20 4 20 5 0 9 -9 9 -20z m70 5 c19 -23 8 -25
-14 -4 -11 11 -15 19 -9 19 6 0 16 -7 23 -15z m65 5 c3 -5 -3 -10 -14 -10 -12
0 -21 5 -21 10 0 6 6 10 14 10 8 0 18 -4 21 -10z m53 -7 c-2 -10 -7 -21 -13
-25 -6 -5 -4 -12 5 -18 13 -8 12 -10 -2 -10 -14 0 -18 8 -18 35 0 25 4 35 15
35 10 0 15 -7 13 -17z m112 -8 c0 -14 -4 -25 -10 -25 -8 0 -8 23 -1 48 4 12
11 -3 11 -23z m-53 9 c-3 -3 -12 -4 -19 -1 -8 3 -5 6 6 6 11 1 17 -2 13 -5z
m-290 -41 c-3 -10 -5 -4 -5 12 0 17 2 24 5 18 2 -7 2 -21 0 -30z m60 -5 c-3
-7 -5 -2 -5 12 0 14 2 19 5 13 2 -7 2 -19 0 -25z m118 22 c3 -5 -1 -10 -9 -10
-8 0 -18 5 -21 10 -3 6 1 10 9 10 8 0 18 -4 21 -10z m440 0 c-3 -5 -12 -10
-18 -10 -7 0 -6 4 3 10 19 12 23 12 15 0z m-504 -14 c5 3 9 0 9 -5 0 -6 -9
-11 -20 -11 -20 0 -26 11 -13 24 4 4 9 2 11 -3 2 -6 8 -9 13 -5z m179 -3 c0
-10 -4 -14 -8 -8 -4 6 -11 13 -16 18 -5 4 -2 7 7 7 10 0 17 -8 17 -17z m-113
-9 c-3 -3 -12 -4 -19 -1 -8 3 -5 6 6 6 11 1 17 -2 13 -5z m-453 -56 c-1 -13
-3 -31 -3 -40 -2 -37 -21 -16 -21 22 0 27 4 40 13 40 8 0 13 -9 11 -22z m1
-118 c3 -5 1 -10 -4 -10 -6 0 -11 5 -11 10 0 6 2 10 4 10 3 0 8 -4 11 -10z
m6882 -736 c-3 -3 -12 -4 -19 -1 -8 3 -5 6 6 6 11 1 17 -2 13 -5z m-2427 -380
c0 -181 -3 -273 -10 -269 -17 10 -11 545 6 545 2 0 4 -124 4 -276z m77 234
c-3 -8 -6 -5 -6 6 -1 11 2 17 5 13 3 -3 4 -12 1 -19z m-2717 -187 c24 -161 27
-171 45 -171 20 0 62 -38 78 -69 13 -25 12 -34 -8 -87 -13 -32 -45 -105 -72
-161 l-49 -101 -2 181 c0 100 -6 241 -11 312 -21 262 -22 280 -12 260 5 -11
19 -85 31 -164z m2721 73 c-1 -48 -3 -90 -6 -92 -3 -3 -5 39 -5 93 0 54 3 96
6 92 3 -3 6 -45 5 -93z m-175 9 c-11 -11 -19 6 -11 24 8 17 8 17 12 0 3 -10 2
-21 -1 -24z m284 -117 c0 -61 -4 -85 -13 -89 -10 -4 -13 4 -11 31 2 21 3 61 3
90 1 28 6 52 11 52 6 0 10 -35 10 -84z m450 52 c0 -13 19 -39 48 -65 35 -32
42 -43 28 -43 -13 0 -17 -5 -13 -20 3 -11 4 -20 3 -20 -9 0 -47 41 -65 70 -21
35 -30 117 -11 105 6 -3 10 -16 10 -27z m-942 -80 l-3 -93 -52 -3 -53 -3 0 65
c0 68 -8 83 -37 68 -14 -8 -16 -27 -14 -141 l2 -131 -190 0 -191 0 0 165 0
165 270 0 271 0 -3 -92z m371 -432 c-9 -8 -10 -2 -5 23 3 18 7 126 8 240 l3
206 2 -229 c3 -164 0 -233 -8 -240z m721 339 c0 -8 5 -15 10 -15 6 0 10 -7 10
-15 0 -20 -10 -19 -26 3 -16 20 -18 42 -4 42 6 0 10 -7 10 -15z m-2876 -91 c2
-66 1 -74 -11 -58 -14 19 -17 82 -7 122 10 38 16 18 18 -64z m501 -323 c88
-16 273 -46 410 -66 138 -20 260 -40 271 -45 12 -5 38 -38 58 -74 20 -36 42
-66 48 -66 6 0 9 -2 7 -4 -2 -2 -38 5 -79 15 -41 11 -160 35 -265 53 -161 29
-192 32 -201 20 -10 -12 -31 -11 -145 5 -74 11 -181 25 -239 32 -58 6 -106 13
-108 14 -2 2 8 30 22 64 14 33 26 68 26 76 0 11 6 15 18 11 9 -3 89 -19 177
-35z m2233 -61 c11 -36 19 -66 18 -67 -1 -1 -62 -7 -136 -13 -83 -7 -139 -17
-145 -24 -5 -7 -27 -16 -48 -20 -32 -6 -41 -4 -55 14 l-17 22 -165 -22 c-179
-23 -414 -63 -442 -75 -28 -12 -22 17 17 82 l35 57 112 17 c62 9 241 36 398
59 157 23 308 45 335 49 31 5 54 3 62 -3 6 -6 20 -40 31 -76z m427 50 c3 -6
-1 -7 -9 -4 -18 7 -21 14 -7 14 6 0 13 -4 16 -10z m66 -36 c8 -9 8 -14 1 -14
-6 0 -14 5 -17 10 -3 6 -11 10 -18 10 -6 0 -2 -7 10 -15 12 -8 28 -13 36 -10
15 7 157 -84 157 -101 0 -27 26 -63 42 -58 22 7 56 -31 68 -75 12 -42 12 -275
1 -414 -7 -90 -14 -117 -26 -106 -2 3 1 119 7 258 12 244 11 254 -7 289 -11
20 -27 38 -35 40 -11 4 -10 -1 4 -16 17 -19 18 -32 12 -100 -3 -44 -17 -146
-30 -228 -14 -82 -28 -176 -31 -209 l-7 -61 -77 -17 c-42 -9 -85 -17 -96 -17
-18 0 -18 1 3 16 12 8 46 23 75 33 l52 18 11 64 c15 82 17 166 4 174 -5 3 -10
1 -10 -4 0 -32 -33 -198 -42 -208 -16 -20 -153 -81 -195 -88 -41 -6 -38 -3 47
33 19 8 56 25 82 37 25 13 49 21 52 18 3 -4 6 -1 6 5 0 7 -15 12 -34 12 -36 0
-195 -48 -247 -76 l-32 -16 5 29 c3 15 11 61 19 101 l13 72 41 11 c22 5 60 16
85 22 l45 13 2 94 c2 81 -1 107 -25 175 l-27 80 -210 -1 c-302 -3 -1010 -54
-1096 -80 -9 -2 -47 -67 -85 -144 -38 -77 -73 -138 -79 -136 -16 5 -8 29 62
183 46 101 73 147 87 152 12 5 93 15 181 25 654 67 671 69 1144 107 l153 13
-33 28 c-19 16 -48 35 -66 44 -19 9 -31 23 -30 33 1 21 29 17 48 -5z m24 -64
c3 -5 2 -10 -4 -10 -5 0 -13 5 -16 10 -3 6 -2 10 4 10 5 0 13 -4 16 -10z
m1025 -10 c0 -11 -2 -20 -4 -20 -2 0 -6 9 -9 20 -3 11 -1 20 4 20 5 0 9 -9 9
-20z m-4100 -55 c157 -14 355 -34 440 -46 85 -11 193 -24 240 -29 47 -5 137
-16 200 -24 63 -9 120 -16 125 -16 6 0 16 -4 23 -8 11 -7 142 -286 142 -303 0
-3 -11 -4 -25 -1 -14 2 -25 9 -25 16 0 6 -24 61 -54 122 l-53 111 -74 11 c-41
6 -216 25 -389 42 -243 24 -371 32 -560 33 l-245 2 -37 -75 c-35 -72 -79 -242
-66 -255 7 -7 150 -50 287 -87 79 -21 105 -39 85 -58 -5 -5 -51 2 -104 16
-133 34 -131 34 -123 -23 3 -27 10 -57 16 -67 7 -15 6 -18 -4 -14 -8 2 -71 22
-141 43 l-127 39 -12 73 c-12 74 -22 94 -41 75 -15 -15 -10 -250 6 -282 12
-25 12 -26 -10 -22 -19 3 -24 12 -29 56 -15 134 -26 286 -32 438 -7 201 -4
208 82 208 29 0 73 3 99 6 41 6 46 10 46 32 0 23 3 24 38 19 20 -4 165 -18
322 -32z m5150 -43 c-90 -2 -130 -6 -120 -12 11 -7 8 -10 -15 -10 -23 0 -26 3
-15 10 10 6 -31 10 -125 12 -77 2 -16 4 135 4 151 0 214 -2 140 -4z m-3230
-12 c0 -5 -4 -10 -10 -10 -5 0 -10 5 -10 10 0 6 5 10 10 10 6 0 10 -4 10 -10z
m3013 -7 c-29 -2 -78 -2 -110 0 -32 2 -8 3 52 3 61 0 87 -1 58 -3z m-6836 -45
c-3 -8 -6 -5 -6 6 -1 11 2 17 5 13 3 -3 4 -12 1 -19z m3411 4 c-7 -9 -18 -23
-25 -29 -6 -7 -25 -37 -42 -67 -17 -29 -37 -59 -45 -65 -9 -7 -42 -11 -88 -9
l-73 3 -47 90 c-27 49 -48 90 -48 90 0 0 86 1 191 2 178 2 190 1 177 -15z
m-2332 -101 c-4 -25 -13 -89 -21 -141 -18 -123 -22 -143 -46 -210 -11 -30 -33
-98 -48 -150 -32 -112 -104 -263 -141 -293 -42 -37 -67 -104 -116 -312 -81
-352 -124 -516 -145 -557 -11 -21 -66 -105 -123 -186 -104 -147 -206 -324
-206 -355 0 -10 19 -41 43 -71 23 -29 65 -91 94 -137 54 -88 240 -335 304
-404 20 -22 88 -101 150 -175 154 -185 173 -206 324 -360 l133 -135 -11 -72
c-5 -40 -13 -73 -17 -73 -9 0 -132 93 -188 143 -91 79 -210 199 -272 273 -37
44 -112 129 -166 190 -117 131 -239 284 -304 379 -66 98 -164 283 -171 324
-16 86 47 275 140 421 26 41 67 107 91 145 24 39 66 106 95 150 28 44 61 105
73 135 29 74 109 414 124 525 7 61 18 102 34 126 12 20 44 81 70 135 26 55 57
113 69 129 44 60 57 99 80 248 31 190 54 297 65 297 5 0 16 15 25 34 13 28 20
32 42 28 24 -5 25 -7 19 -51z m6050 -705 c0 -377 -5 -688 -9 -692 -4 -4 -7
306 -7 690 0 417 4 695 9 692 6 -4 9 -287 7 -690z m-5917 420 c7 -110 14 -203
17 -208 3 -4 1 -8 -4 -8 -6 0 -13 21 -16 48 -15 111 -36 331 -35 372 0 43 0
44 13 20 9 -16 18 -98 25 -224z m2671 209 c0 -14 -4 -25 -10 -25 -11 0 -14 33
-3 43 11 11 13 8 13 -18z m672 3 c21 -18 27 -39 17 -65 -11 -31 -40 -29 -71 5
-20 21 -24 32 -17 50 9 25 45 30 71 10z m-1812 -16 c0 -24 -54 -23 -58 1 -3
13 4 17 27 17 23 0 31 -5 31 -18z m2582 -137 l-9 -70 -2 66 c0 36 2 88 7 115
l7 49 3 -45 c1 -25 -1 -76 -6 -115z m-1030 82 c58 -26 106 -74 139 -140 12
-23 23 -43 24 -45 1 -2 46 4 98 13 105 18 131 17 118 -3 -5 -8 -47 -17 -109
-24 l-102 -11 0 -48 c0 -102 -74 -224 -164 -272 -33 -18 -57 -22 -131 -22
-105 0 -143 16 -215 87 -60 59 -80 108 -80 193 0 125 71 232 185 278 62 25
173 22 237 -6z m-1572 -8 c0 -19 -21 -50 -31 -44 -13 9 -11 42 4 48 20 9 27 8
27 -4z m-330 -20 c100 -45 170 -147 178 -259 4 -59 1 -72 -26 -125 -66 -130
-182 -198 -302 -175 -150 28 -240 139 -240 293 0 83 31 148 100 210 84 75 198
98 290 56z m572 -128 c-50 -70 -91 -157 -203 -421 -45 -107 -88 -204 -96 -215
-15 -22 -73 -36 -437 -106 l-220 -42 -99 22 c-119 27 -150 40 -143 58 3 8 2
12 -3 9 -4 -3 -17 16 -29 42 -41 93 -94 233 -90 237 4 4 40 -70 70 -142 7 -18
16 -33 19 -33 4 0 16 -22 27 -48 l21 -49 83 -22 c46 -12 99 -24 118 -27 34 -6
336 48 556 98 l91 21 58 121 c175 364 238 487 265 521 16 21 30 43 30 48 0 7
4 7 12 -1 9 -9 1 -25 -30 -71z m527 32 c11 -21 28 -48 40 -60 28 -29 82 -117
113 -183 15 -30 53 -112 87 -181 33 -70 66 -143 75 -162 8 -19 23 -40 34 -46
40 -21 560 -154 622 -158 36 -3 81 -1 100 5 110 34 206 73 217 88 7 10 13 14
14 8 0 -5 9 11 19 36 22 52 26 29 7 -44 l-13 -49 -94 -36 c-52 -20 -122 -45
-155 -54 l-60 -18 -255 66 c-140 36 -294 75 -342 86 l-88 22 -24 51 c-48 101
-150 323 -186 406 -20 47 -62 122 -93 166 -47 69 -58 94 -41 94 2 0 12 -17 23
-37z m-156 -62 c18 -7 27 -18 27 -32 0 -12 9 -37 21 -56 12 -18 17 -33 13 -32
-5 1 -11 1 -14 0 -24 -5 -350 -4 -350 2 0 4 5 7 12 7 6 0 9 3 5 6 -8 9 32 82
55 98 23 17 192 21 231 7z m-3196 -178 c-2 -32 -3 -6 -3 57 0 63 1 89 3 58 2
-32 2 -84 0 -115z m-137 123 c0 -8 -4 -18 -10 -21 -5 -3 -10 3 -10 14 0 12 5
21 10 21 6 0 10 -6 10 -14z m1498 -136 l0 -35 -9 40 c-4 22 -8 49 -7 60 0 16
2 15 8 -5 4 -14 8 -41 8 -60z m1119 34 c-3 -3 -12 -4 -19 -1 -8 3 -5 6 6 6 11
1 17 -2 13 -5z m51 -64 c-37 -70 -49 -73 -17 -3 18 41 34 62 47 63 1 0 -12
-27 -30 -60z m1204 15 c-2 -11 -8 -21 -13 -23 -5 -2 -9 -10 -9 -19 0 -13 -2
-13 -15 1 -18 18 -20 52 -2 59 24 10 42 2 39 -18z m1618 -18 c0 -7 5 -29 11
-50 10 -37 11 -38 29 -22 23 20 33 15 50 -25 16 -38 7 -60 -25 -60 -29 0 -29
-1 -14 -119 20 -148 69 -382 100 -474 31 -94 126 -308 241 -547 67 -139 121
-271 168 -411 l22 -66 -28 -54 c-60 -120 -202 -311 -374 -504 -79 -89 -413
-419 -490 -485 -122 -104 -270 -253 -270 -272 0 -29 -22 -21 -71 28 l-46 45
141 143 c484 489 630 649 781 861 44 61 102 135 131 165 75 79 134 153 134
167 0 20 -116 267 -215 458 -51 99 -129 258 -174 352 l-80 172 -20 228 c-11
125 -23 267 -27 314 -7 94 2 183 17 174 5 -4 9 -12 9 -18z m-5353 -134 c-2
-21 -4 -6 -4 32 0 39 2 55 4 38 2 -18 2 -50 0 -70z m1817 81 c3 -8 2 -12 -4
-9 -6 3 -10 10 -10 16 0 14 7 11 14 -7z m1306 -45 c-12 -8 -10 -9 8 -4 27 8
72 -18 72 -41 0 -8 4 -13 8 -10 5 3 16 -3 24 -13 12 -15 13 -22 5 -31 -9 -10
-8 -12 5 -7 12 4 15 0 13 -18 -1 -14 1 -22 6 -19 13 7 30 -33 22 -53 -7 -17
-6 -17 12 0 14 14 20 16 26 6 4 -7 5 -17 3 -21 -3 -5 0 -7 8 -6 8 2 12 -6 11
-22 -1 -14 0 -19 3 -12 8 18 24 4 17 -15 -4 -10 -2 -14 4 -10 14 9 45 -37 38
-55 -3 -8 6 -24 20 -36 14 -12 25 -28 25 -34 0 -33 22 -88 35 -88 8 0 15 -4
15 -10 0 -5 5 -10 11 -10 24 0 373 -167 422 -202 24 -17 27 -25 21 -52 -3 -17
-11 -34 -17 -38 -6 -4 -9 -10 -5 -13 14 -14 -61 -234 -89 -263 -19 -19 -17
-26 27 -96 51 -81 51 -105 -1 -167 l-41 -49 35 0 c39 0 80 38 157 148 l44 63
49 -53 c50 -54 55 -49 23 25 -10 22 -13 37 -9 34 16 -10 71 22 85 49 9 16 26
48 39 71 l23 41 -25 36 c-24 33 -25 40 -15 86 7 36 15 50 26 50 21 0 90 -50
117 -84 20 -24 20 -30 8 -76 -12 -47 -78 -179 -95 -190 -4 -3 -26 -33 -49 -67
-23 -34 -45 -63 -49 -65 -12 -5 -72 -107 -72 -123 0 -8 -20 -35 -45 -62 -25
-26 -45 -42 -45 -35 0 7 -4 10 -10 7 -5 -3 -10 -14 -10 -24 0 -21 -35 -55 -48
-47 -5 3 -13 -4 -17 -17 -4 -13 -8 -17 -12 -9 -2 6 -9 10 -14 6 -5 -3 -9 21
-9 54 0 32 -5 73 -11 91 -9 26 -16 31 -44 31 l-32 0 -7 -105 c-4 -57 -11 -131
-17 -162 -6 -32 -12 -64 -13 -70 -1 -7 -10 -21 -19 -30 -134 -142 -207 -214
-201 -198 4 11 4 17 0 13 -4 -3 -9 -13 -10 -22 -1 -9 -27 -44 -58 -79 -31 -34
-67 -75 -81 -91 l-24 -29 -307 1 -307 1 -132 122 c-73 68 -169 159 -213 204
l-81 80 -8 187 c-7 180 -8 186 -26 175 -15 -9 -19 -24 -19 -72 0 -62 16 -215
26 -248 10 -31 -121 77 -249 206 -91 92 -139 151 -209 258 -50 76 -96 139
-103 139 -16 0 -57 58 -50 70 3 6 15 10 26 10 10 0 19 2 19 4 0 3 -18 42 -40
87 -22 46 -40 93 -40 105 0 30 43 80 81 93 29 10 31 9 45 -24 47 -115 42 -108
71 -100 15 3 31 11 34 17 6 9 -16 131 -26 148 -3 5 4 12 16 15 27 9 40 -10 68
-96 20 -62 59 -151 97 -221 8 -16 22 -28 30 -28 10 0 13 -6 10 -18 -4 -12 3
-27 19 -42 30 -28 31 -40 5 -63 -44 -37 -12 -109 84 -194 47 -41 73 -46 96
-18 7 9 -2 30 -36 79 -25 37 -48 82 -51 101 -5 30 -1 38 38 74 l43 39 -41 89
c-23 48 -49 113 -57 143 -8 30 -27 93 -41 139 -44 146 -42 157 32 195 40 20
47 20 39 0 -3 -8 -2 -12 4 -9 6 4 10 -7 10 -24 0 -16 4 -32 8 -35 5 -3 55 15
111 39 105 46 274 105 298 105 8 0 21 17 29 38 20 52 86 176 97 183 5 3 8 9 8
13 -3 23 0 36 9 31 6 -3 7 1 4 9 -4 11 0 16 12 16 12 0 15 3 7 8 -8 5 -8 11 1
24 7 10 17 14 21 10 5 -4 5 -1 1 6 -12 20 23 55 41 41 8 -8 13 -8 13 -1 0 6
-6 12 -12 15 -8 3 0 16 22 37 39 35 77 59 66 41 -4 -6 0 -11 9 -11 11 0 15 5
12 14 -6 15 17 21 93 24 27 1 32 -1 20 -9z m-3123 -306 c-1 -43 -3 -8 -3 77 0
85 2 120 3 78 2 -43 2 -113 0 -155z m6760 41 c-3 -3 -12 -4 -19 -1 -8 3 -5 6
6 6 11 1 17 -2 13 -5z m34 -47 c-10 -9 -11 -8 -5 6 3 10 9 15 12 12 3 -3 0
-11 -7 -18z m-2836 -267 c-11 -5 -14 -9 -7 -9 6 -1 12 -6 12 -11 0 -7 -6 -7
-19 0 -14 7 -21 6 -24 -3 -3 -6 -6 -3 -6 8 -1 16 6 20 32 22 26 1 28 0 12 -7z
m17 -60 c6 0 9 -3 6 -6 -9 -8 -48 14 -48 27 0 6 7 3 16 -5 8 -9 20 -16 26 -16z
m-2287 -80 c-4 -34 -9 -59 -12 -56 -3 3 -2 32 2 66 4 34 9 59 12 56 3 -3 2
-32 -2 -66z m2540 -52 c-1 -68 -10 -99 -61 -223 -44 -107 -67 -155 -75 -155
-15 0 -53 42 -43 48 21 14 73 120 99 202 14 47 31 93 36 102 5 10 9 24 9 31 0
11 27 57 33 57 1 0 2 -28 2 -62z m-2441 36 c4 -9 5 -18 4 -18 -2 -1 -22 -14
-45 -29 -53 -34 -58 -34 -36 1 39 63 65 78 77 46z m2636 -28 c0 -7 7 -19 15
-26 8 -7 15 -19 15 -27 0 -12 -2 -12 -15 1 -20 20 -37 66 -25 66 6 0 10 -6 10
-14z m2557 -28 c-3 -7 -5 -2 -5 12 0 14 2 19 5 13 2 -7 2 -19 0 -25z m-2516 5
c13 -16 12 -17 -3 -4 -10 7 -18 15 -18 17 0 8 8 3 21 -13z m-2965 -18 c9 -8
11 -15 5 -15 -6 0 -11 -11 -11 -25 0 -23 -2 -24 -20 -15 -11 6 -20 21 -20 34
0 38 20 47 46 21z m2897 1 c3 4 14 -1 23 -11 14 -13 15 -21 6 -35 -11 -18 -7
-30 10 -30 5 0 6 5 3 10 -3 6 -2 10 4 10 6 0 9 -14 7 -32 -3 -21 2 -36 12 -44
14 -10 10 -34 -7 -34 -5 0 -16 21 -26 48 -10 26 -23 54 -29 62 -16 21 -36 59
-36 66 0 4 6 1 13 -5 8 -6 17 -8 20 -5z m-2950 -184 c4 -32 2 -50 -3 -47 -6 4
-10 -1 -10 -11 0 -13 -5 -10 -21 10 -18 23 -20 34 -14 79 4 28 13 55 19 59 13
8 20 -14 29 -90z m3022 -2 c3 -5 1 -10 -4 -10 -6 0 -11 5 -11 10 0 6 2 10 4
10 3 0 8 -4 11 -10z m26 -37 c11 -13 11 -17 2 -20 -7 -3 -13 -12 -14 -21 -1
-10 -4 -7 -9 8 -16 51 -6 67 21 33z m47 -74 c-1 -17 -6 -28 -12 -26 -6 2 -10
19 -9 38 2 30 1 31 -6 9 -7 -23 -9 -23 -16 -6 -5 11 -3 21 6 26 20 13 38 -7
37 -41z m-3114 -67 c21 -41 14 -77 -8 -46 -8 10 -20 19 -27 19 -25 0 -38 96
-17 119 11 11 15 7 24 -23 6 -20 18 -51 28 -69z m3133 -52 c0 -18 -6 -30 -14
-30 -7 0 -13 -7 -13 -17 0 -9 -3 -14 -6 -10 -8 8 -8 73 0 86 12 19 33 0 33
-29z m-71 -118 c-8 -7 -34 92 -28 107 3 8 12 -11 19 -44 7 -32 11 -60 9 -63z
m-3139 86 c-3 -8 -6 -5 -6 6 -1 11 2 17 5 13 3 -3 4 -12 1 -19z m63 -89 c4
-14 4 -32 0 -39 -13 -21 -37 29 -43 89 l-4 55 20 -39 c11 -22 23 -51 27 -66z
m330 69 c0 -4 -9 -8 -21 -8 -11 0 -18 4 -15 8 3 5 12 9 21 9 8 0 15 -4 15 -9z
m2825 2 c3 -5 1 -10 -4 -10 -6 0 -11 5 -11 10 0 6 2 10 4 10 3 0 8 -4 11 -10z
m-3218 -47 c-3 -10 -5 -2 -5 17 0 19 2 27 5 18 2 -10 2 -26 0 -35z m388 -33
c3 -5 2 -10 -4 -10 -5 0 -13 5 -16 10 -3 6 -2 10 4 10 5 0 13 -4 16 -10z
m2850 -13 c8 -13 18 -45 21 -71 l7 -48 -26 17 c-15 9 -27 25 -27 34 0 9 -5 22
-11 28 -11 11 -2 63 12 63 5 0 15 -10 24 -23z m-3210 -80 c1 -32 8 -63 18 -77
19 -27 23 -75 6 -64 -6 3 -19 27 -30 52 -11 24 -22 42 -26 39 -10 -10 -33 13
-33 33 0 10 6 23 14 29 11 10 17 8 25 -6 9 -15 10 -11 11 21 0 58 13 35 15
-27z m340 53 c3 -6 -1 -7 -9 -4 -18 7 -21 14 -7 14 6 0 13 -4 16 -10z m-11
-99 c-9 -10 -26 18 -18 30 5 9 9 8 14 -7 4 -10 6 -21 4 -23z m-34 0 c0 -6 -4
-13 -10 -16 -5 -3 -10 1 -10 9 0 9 5 16 10 16 6 0 10 -4 10 -9z m2480 -275
c-7 -138 -14 -253 -16 -255 -2 -2 -7 -2 -10 2 -7 7 14 483 23 512 14 47 15
-20 3 -259z m436 206 c17 -12 44 -56 44 -72 0 -11 -9 -16 -27 -15 -35 0 -43
10 -43 58 0 37 5 43 26 29z m-2926 -62 c0 -5 -2 -10 -4 -10 -3 0 -8 5 -11 10
-3 6 -1 10 4 10 6 0 11 -4 11 -10z m400 -7 c0 -10 1 -114 3 -231 1 -116 -1
-212 -5 -212 -5 0 -8 49 -8 108 0 60 -3 164 -7 230 -4 89 -3 122 5 122 7 0 12
-8 12 -17z m-649 -58 c31 -67 23 -87 -12 -33 -27 41 -34 46 -50 37 -16 -8 -19
-6 -19 15 0 31 29 50 49 33 8 -7 22 -30 32 -52z m2564 -202 c-4 -100 -11 -163
-17 -163 -11 0 -5 221 10 350 7 62 7 63 10 20 2 -25 1 -118 -3 -207z m605 122
c6 -8 9 -23 5 -34 -6 -20 -7 -20 -33 -4 -35 23 -44 36 -29 45 19 12 44 9 57
-7z m-2906 -41 c4 -14 4 -29 1 -33 -10 -9 -54 50 -48 65 8 21 40 -1 47 -32z
m523 -11 c-3 -10 -5 -2 -5 17 0 19 2 27 5 18 2 -10 2 -26 0 -35z m4578 -54
c77 -43 90 -56 87 -88 -5 -41 -31 -166 -40 -190 -8 -21 -8 -21 -50 10 -23 17
-54 34 -69 38 l-28 7 -3 144 -3 143 23 -15 c13 -8 50 -30 83 -49z m-7405 -46
c0 -122 -5 -143 -35 -143 -22 0 -88 -43 -114 -73 -7 -9 -19 -17 -25 -17 -14 0
-60 203 -48 208 5 1 53 29 108 62 54 33 102 59 107 60 4 0 7 -44 7 -97z m2086
60 c4 -10 8 -20 8 -23 1 -3 5 -11 9 -17 5 -7 4 -13 -2 -13 -5 0 -13 5 -16 11
-5 7 -14 4 -28 -8 -12 -9 -16 -11 -9 -3 16 19 15 31 -2 24 -9 -3 -13 2 -11 18
3 29 2 28 24 28 10 0 22 -8 27 -17z m793 -380 c1 -7 -3 -13 -7 -13 -10 0 -29
165 -36 310 -4 73 0 51 19 -95 13 -104 24 -196 24 -202z m2245 316 c14 -11 26
-26 26 -32 -1 -7 -6 -6 -13 4 -7 8 -21 19 -31 23 -20 7 -20 7 0 -15 l19 -22
-25 13 c-33 17 -31 15 -24 34 8 21 16 20 48 -5z m-2941 -133 c3 -8 3 -17 0
-20 -7 -7 -53 -8 -53 -2 0 2 -3 11 -6 20 -5 12 1 16 24 16 16 0 32 -6 35 -14z
m2857 -41 c22 -23 22 -25 4 -22 -31 5 -57 24 -50 36 11 17 20 14 46 -14z
m-2770 -84 c0 -4 -3 -10 -6 -14 -8 -7 -33 16 -28 25 6 9 34 -1 34 -11z m2723
-19 c10 -10 14 -21 11 -24 -7 -7 -64 24 -64 35 0 14 37 7 53 -11z m-2854 -250
c28 -42 51 -88 51 -101 0 -13 -3 -22 -6 -19 -3 4 -60 -29 -127 -73 -66 -44
-125 -75 -129 -71 -5 5 -10 23 -13 41 -4 35 -42 92 -83 128 l-26 22 34 31 c19
16 76 54 125 84 67 39 94 51 107 44 10 -4 40 -43 67 -86z m271 43 c14 -19 14
-19 -2 -6 -10 7 -18 18 -18 24 0 6 1 8 3 6 1 -2 9 -13 17 -24z m2923 -35 c58
-31 147 -109 147 -129 0 -23 -52 -11 -76 18 -24 29 -92 77 -98 70 -1 -2 -12
-18 -23 -34 l-21 -31 42 -27 c24 -15 48 -27 55 -27 6 0 11 -4 11 -9 0 -5 14
-14 30 -20 17 -5 30 -14 30 -18 0 -5 -24 -35 -54 -68 l-54 -60 -44 42 c-78 71
-85 72 -131 24 -37 -40 -40 -42 -58 -25 -25 22 -25 21 122 204 11 14 32 44 47
67 15 23 29 42 32 43 3 0 22 -9 43 -20z m-4023 -190 l20 -20 -59 0 c-41 0 -60
4 -64 14 -8 20 2 26 45 26 25 0 45 -7 58 -20z m5065 -51 c4 -5 1 -23 -5 -40
-10 -24 -18 -29 -48 -29 -19 0 -32 3 -29 7 4 3 1 13 -6 21 -7 10 -8 13 -1 9 7
-4 14 3 18 18 5 20 13 25 36 25 16 0 32 -5 35 -11z m-5013 -27 c9 -9 -6 -12
-64 -12 -73 0 -109 12 -71 24 30 8 123 0 135 -12z m4872 -27 c4 -10 -1 -15
-14 -15 -11 0 -20 7 -20 15 0 8 6 15 14 15 8 0 16 -7 20 -15z m-5544 -36 c0
-11 -7 -19 -15 -19 -10 0 -15 10 -15 31 0 27 2 30 15 19 8 -7 15 -21 15 -31z
m41 24 c1 -17 2 -17 6 0 6 24 26 16 34 -14 7 -23 7 -22 9 6 l2 30 13 -30 c8
-16 14 -24 15 -17 0 6 9 12 20 12 39 0 14 -25 -30 -30 -78 -9 -100 -2 -100 31
0 32 29 42 31 12z m709 -28 c0 -8 8 -15 18 -16 14 0 14 -2 -3 -9 -18 -7 -58
-7 -205 -1 -20 1 -22 3 -10 11 10 6 11 10 3 10 -7 0 -13 4 -13 9 0 5 47 9 105
10 89 2 105 0 105 -14z m3617 -11 c8 -11 22 -29 33 -41 25 -29 16 -34 -28 -16
l-36 15 -64 -67 c-34 -37 -65 -65 -67 -63 -3 2 20 35 50 73 55 69 64 88 45
100 -21 13 -9 24 22 21 17 -2 38 -12 45 -22z m1023 -4 c0 -11 -4 -20 -9 -20
-5 0 -7 9 -4 20 3 11 7 20 9 20 2 0 4 -9 4 -20z m-3733 -19 c18 -23 16 -45 -8
-75 -18 -23 -27 -27 -68 -24 -42 3 -46 5 -49 32 -5 44 6 76 31 86 29 12 78 2
94 -19z m3989 10 c-7 -10 20 -9 30 2 13 12 24 7 18 -8 -4 -8 -1 -15 5 -15 6 0
11 -5 11 -10 0 -7 -26 -10 -66 -9 -36 1 -61 5 -56 8 4 3 11 14 15 24 3 9 16
17 27 17 12 0 19 -4 16 -9z m-5458 -56 c27 -5 32 -10 32 -35 l0 -29 -137 3
c-76 2 -148 4 -160 5 -18 1 -23 7 -22 29 l1 27 8 -25 8 -25 1 24 c1 13 4 22 7
19 3 -3 16 -3 30 1 33 9 191 13 232 6z m572 -31 l0 -34 -239 0 c-132 0 -246 3
-255 6 -16 6 -22 45 -9 58 4 4 119 6 255 5 l248 -1 0 -34z m47 -26 c-2 -13 -4
-3 -4 22 0 25 2 35 4 23 2 -13 2 -33 0 -45z m4913 12 c0 -18 -7 -20 -55 -20
-44 0 -56 4 -65 20 -10 19 -8 20 55 20 58 0 65 -2 65 -20z m57 -12 c-3 -7 -5
-2 -5 12 0 14 2 19 5 13 2 -7 2 -19 0 -25z m-4920 -10 c-3 -7 -5 -2 -5 12 0
14 2 19 5 13 2 -7 2 -19 0 -25z m869 16 c-3 -9 -6 -20 -6 -26 0 -6 -9 -8 -20
-5 -20 5 -28 -12 -12 -27 7 -7 8 -12 11 -38 1 -7 32 -47 71 -88 38 -41 68 -76
66 -77 -1 -2 -27 21 -57 50 -30 28 -73 68 -96 89 -45 40 -68 98 -38 98 9 0 25
9 37 20 26 24 53 27 44 4z m3541 -16 c-3 -7 -5 -2 -5 12 0 14 2 19 5 13 2 -7
2 -19 0 -25z m-3805 -165 c59 -62 86 -97 82 -107 -10 -27 -29 -18 -86 42 -31
31 -90 90 -132 130 -79 76 -88 94 -58 111 14 8 25 2 62 -37 24 -26 84 -88 132
-139z m3018 156 c0 -12 -29 -38 -43 -39 -4 0 0 11 10 25 19 26 33 32 33 14z
m-5313 -46 c-3 -10 -5 -2 -5 17 0 19 2 27 5 18 2 -10 2 -26 0 -35z m5413 -50
l30 -47 0 -388 c0 -260 -3 -388 -10 -388 -6 0 -12 6 -15 13 -2 6 -6 174 -9
372 l-5 360 -29 25 c-41 35 -46 56 -20 80 12 11 23 20 25 20 2 0 17 -21 33
-47z m-3518 -48 c-6 -34 -12 -32 -12 6 0 16 4 28 9 25 4 -3 6 -17 3 -31z
m-1895 -67 c-2 -18 -4 -4 -4 32 0 36 2 50 4 33 2 -18 2 -48 0 -65z m6529 45
c-7 -8 -56 9 -51 18 3 4 17 3 30 -3 14 -6 23 -13 21 -15z m1389 -15 c15 -14
28 -38 31 -59 5 -28 1 -41 -21 -67 -34 -41 -84 -44 -120 -7 -75 74 30 202 110
133z m-6028 -60 c-2 -13 -4 -3 -4 22 0 25 2 35 4 23 2 -13 2 -33 0 -45z m4623
7 c0 -21 -17 -35 -41 -35 -21 0 -29 5 -29 18 0 12 9 17 35 19 19 1 35 0 35 -2z
m-3807 -38 c28 -29 51 -57 45 -57 -2 0 -22 18 -43 40 -21 22 -36 40 -32 40 5
0 18 -10 30 -23z m2277 -22 c-24 -25 -46 -45 -48 -45 -9 0 73 88 83 89 5 1
-11 -19 -35 -44z m-3093 -122 c-2 -16 -4 -5 -4 22 0 28 2 40 4 28 2 -13 2 -35
0 -50z m-1890 -5 c-3 -8 -6 -5 -6 6 -1 11 2 17 5 13 3 -3 4 -12 1 -19z m4123
-402 c0 -145 -3 -272 -6 -280 -4 -9 -72 -69 -153 -133 -80 -64 -160 -130 -178
-146 -30 -29 -33 -29 -56 -14 -13 9 -30 22 -38 29 -8 7 -43 36 -78 63 -35 28
-101 81 -147 118 l-84 68 0 280 0 279 370 0 370 0 0 -264z m-2233 72 c-2 -18
-4 -6 -4 27 0 33 2 48 4 33 2 -15 2 -42 0 -60z m3190 -110 c-3 -8 -6 -5 -6 6
-1 11 2 17 5 13 3 -3 4 -12 1 -19z"/>
<path d="M1208 8603 c12 -2 30 -2 40 0 9 3 -1 5 -23 4 -22 0 -30 -2 -17 -4z"/>
<path d="M6600 7003 c0 -4 5 -15 10 -23 8 -13 10 -13 10 2 0 9 -4 20 -10 23
-5 3 -10 3 -10 -2z"/>
<path d="M1488 8503 c23 -2 59 -2 80 0 20 2 1 4 -43 4 -44 0 -61 -2 -37 -4z"/>
<path d="M1688 8503 c7 -3 16 -2 19 1 4 3 -2 6 -13 5 -11 0 -14 -3 -6 -6z"/>
<path d="M1848 8503 c7 -3 16 -2 19 1 4 3 -2 6 -13 5 -11 0 -14 -3 -6 -6z"/>
<path d="M1948 8503 c7 -3 16 -2 19 1 4 3 -2 6 -13 5 -11 0 -14 -3 -6 -6z"/>
<path d="M1433 8483 c9 -2 23 -2 30 0 6 3 -1 5 -18 5 -16 0 -22 -2 -12 -5z"/>
<path d="M1508 8483 c7 -3 16 -2 19 1 4 3 -2 6 -13 5 -11 0 -14 -3 -6 -6z"/>
<path d="M1768 8483 c7 -3 16 -2 19 1 4 3 -2 6 -13 5 -11 0 -14 -3 -6 -6z"/>
<path d="M2233 8483 c20 -2 54 -2 75 0 20 2 3 4 -38 4 -41 0 -58 -2 -37 -4z"/>
<path d="M2368 8483 c7 -3 16 -2 19 1 4 3 -2 6 -13 5 -11 0 -14 -3 -6 -6z"/>
<path d="M1428 8393 c7 -3 16 -2 19 1 4 3 -2 6 -13 5 -11 0 -14 -3 -6 -6z"/>
<path d="M1358 8293 c12 -2 32 -2 45 0 12 2 2 4 -23 4 -25 0 -35 -2 -22 -4z"/>
<path d="M1398 8273 c6 -2 18 -2 25 0 6 3 1 5 -13 5 -14 0 -19 -2 -12 -5z"/>
<path d="M1458 8273 c12 -2 32 -2 45 0 12 2 2 4 -23 4 -25 0 -35 -2 -22 -4z"/>
<path d="M1358 8183 c6 -2 18 -2 25 0 6 3 1 5 -13 5 -14 0 -19 -2 -12 -5z"/>
<path d="M1138 8063 c7 -3 16 -2 19 1 4 3 -2 6 -13 5 -11 0 -14 -3 -6 -6z"/>
<path d="M1188 8063 c12 -2 30 -2 40 0 9 3 -1 5 -23 4 -22 0 -30 -2 -17 -4z"/>
<path d="M4838 6443 c-27 -7 -23 -49 4 -56 21 -6 21 -7 5 -25 -9 -10 -17 -24
-17 -32 0 -7 -6 -18 -14 -24 -9 -7 -13 -21 -9 -37 5 -25 8 -26 46 -22 23 3 43
7 45 8 2 2 7 29 11 60 7 51 6 58 -10 62 -21 6 -26 29 -7 35 6 2 9 12 5 21 -6
17 -24 19 -59 10z"/>
<path d="M4934 6434 c3 -9 6 -67 6 -130 0 -105 2 -114 19 -114 23 0 31 40 31
168 l0 92 -31 0 c-24 0 -30 -3 -25 -16z"/>
<path d="M5046 6441 c-7 -11 -11 -189 -5 -195 3 -4 11 25 18 64 8 44 18 70 26
70 18 0 27 28 16 49 -10 17 -47 26 -55 12z"/>
<path d="M6890 5705 c7 -8 17 -15 22 -15 6 0 5 7 -2 15 -7 8 -17 15 -22 15 -6
0 -5 -7 2 -15z"/>
<path d="M6860 5575 c9 -10 9 -15 1 -15 -7 0 -11 -24 -10 -67 1 -51 3 -60 9
-38 4 17 5 42 2 57 -2 16 1 35 8 43 12 15 6 35 -12 35 -7 0 -6 -6 2 -15z"/>
<path d="M3170 5565 c0 -15 4 -24 10 -20 6 3 10 12 10 20 0 8 -4 17 -10 20 -6
4 -10 -5 -10 -20z"/>
<path d="M5854 5325 c-93 -46 -151 -167 -124 -258 20 -69 58 -114 117 -143
141 -69 291 -1 322 147 43 199 -136 343 -315 254z m164 -204 c3 -25 -2 -33
-22 -42 -49 -23 -96 32 -63 73 30 39 80 21 85 -31z"/>
<path d="M3974 5268 c-84 -57 -118 -148 -89 -244 26 -88 69 -126 161 -143 159
-30 283 144 213 299 -11 24 -28 53 -37 63 -31 35 -89 57 -145 57 -45 0 -63 -6
-103 -32z"/>
<path d="M4770 4381 c0 -99 8 -153 21 -145 10 6 12 177 3 212 -13 48 -24 18
-24 -67z"/>
<path d="M5309 4370 c-7 -40 2 -150 12 -150 10 0 10 40 0 120 -5 37 -9 47 -12
30z"/>
<path d="M5361 4365 c-6 -26 2 -141 9 -155 7 -10 9 -3 9 25 -1 44 -15 146 -18
130z"/>
<path d="M4843 4315 c0 -22 2 -30 4 -17 2 12 2 30 0 40 -3 9 -5 -1 -4 -23z"/>
<path d="M4120 4300 c-9 -6 -10 -10 -3 -10 6 0 15 5 18 10 8 12 4 12 -15 0z"/>
<path d="M4670 4231 c-58 -15 -19 -132 66 -197 18 -14 45 -49 60 -77 39 -77
115 -187 128 -187 6 0 4 -4 -4 -10 -8 -5 -17 -5 -20 0 -7 11 -132 -11 -245
-45 -141 -41 -172 -42 -228 -9 -49 30 -54 42 -37 75 6 10 8 19 5 19 -3 0 -16
-21 -29 -47 -13 -27 -31 -63 -41 -81 -16 -31 -16 -34 2 -64 25 -43 37 -44 74
-9 18 17 35 31 38 32 48 7 113 4 142 -6 20 -7 82 -16 138 -20 78 -6 104 -11
111 -24 7 -14 34 -17 178 -19 156 -3 172 -2 208 17 28 16 57 21 109 21 47 0
84 7 112 20 48 21 133 37 133 24 0 -5 15 -21 34 -36 l35 -28 29 25 c41 34 46
60 16 80 -13 8 -30 28 -39 45 l-15 29 -36 -24 c-81 -55 -112 -55 -299 -6 -118
32 -121 32 -176 17 -30 -9 -80 -15 -110 -15 l-54 2 55 7 c30 4 65 12 76 16 37
15 74 70 105 155 24 66 39 90 74 121 24 21 57 62 74 90 l29 52 -36 23 c-20 12
-46 23 -58 23 -30 0 -114 -45 -154 -83 -19 -18 -46 -41 -60 -50 -30 -21 -89
-22 -116 -3 -17 13 -14 13 23 3 54 -14 81 -2 111 51 l22 40 -82 6 c-72 5 -97
4 -141 -3 -4 0 -3 -10 3 -21 15 -27 6 -25 -47 12 -60 41 -131 67 -163 59z
m277 -487 c-3 -3 -12 -4 -19 -1 -8 3 -5 6 6 6 11 1 17 -2 13 -5z"/>
<path d="M3817 3927 c-52 -50 -54 -67 -14 -152 58 -122 137 -214 137 -160 0 8
9 34 21 57 l20 43 -49 85 c-27 47 -55 103 -61 123 -7 20 -14 37 -17 37 -2 0
-19 -15 -37 -33z"/>
<path d="M4695 3500 c2 -16 -1 -30 -6 -30 -5 0 -9 -7 -9 -16 0 -11 -5 -14 -17
-9 -50 20 -75 27 -79 22 -6 -5 27 -75 88 -187 50 -92 72 -120 87 -115 8 3 18
0 22 -7 7 -10 12 -11 28 -1 11 7 38 16 61 19 22 4 40 10 40 15 0 12 47 11 55
-1 3 -5 20 -8 37 -6 41 5 177 -12 204 -26 17 -8 29 -5 63 16 22 15 41 32 41
39 0 6 11 35 25 62 13 28 25 55 25 60 0 6 16 32 35 59 19 27 35 55 35 62 0 18
-41 21 -73 6 -16 -8 -31 -11 -34 -8 -4 3 -1 6 6 6 8 0 10 7 6 19 -3 11 -1 23
6 26 17 11 -10 25 -51 25 -19 0 -66 -7 -105 -16 -88 -19 -245 -19 -355 1 -47
8 -97 15 -112 15 -24 0 -27 -3 -23 -30z m333 -117 c-21 -2 -55 -2 -75 0 -21 2
-4 4 37 4 41 0 58 -2 38 -4z"/>
<path d="M4076 3409 c-11 -17 -12 -28 -3 -52 9 -27 11 -29 18 -11 7 20 9 18
25 -35 7 -22 34 7 34 38 0 23 -38 81 -53 81 -3 0 -12 -9 -21 -21z m24 -29 c0
-5 -5 -10 -11 -10 -5 0 -7 5 -4 10 3 6 8 10 11 10 2 0 4 -4 4 -10z"/>
<path d="M5906 3294 c-5 -14 -4 -15 9 -4 17 14 19 20 6 20 -5 0 -12 -7 -15
-16z"/>
<path d="M5305 2998 c-7 -32 -35 -248 -35 -275 0 -26 25 -31 34 -7 9 23 20
304 13 304 -4 0 -9 -10 -12 -22z"/>
<path d="M4670 2969 c0 -46 36 -258 45 -267 3 -3 10 -1 17 6 8 8 5 39 -15 121
-15 60 -27 120 -27 133 0 13 -5 30 -10 38 -7 11 -10 3 -10 -31z"/>
<path d="M5550 2965 c-7 -9 -8 -15 -2 -15 5 0 12 7 16 15 3 8 4 15 2 15 -2 0
-9 -7 -16 -15z"/>
<path d="M5521 2917 c-13 -21 -12 -21 5 -5 10 10 16 20 13 22 -3 3 -11 -5 -18
-17z"/>
<path d="M3270 2423 c-41 -25 -77 -47 -79 -49 -6 -6 84 -114 95 -114 10 0 104
59 127 80 9 8 -34 100 -55 117 -10 9 -31 1 -88 -34z"/>
<path d="M6507 2278 l-28 -21 53 -38 c29 -21 61 -39 70 -39 20 0 42 35 35 54
-4 10 -93 68 -101 66 0 0 -14 -10 -29 -22z"/>
<path d="M7652 2191 c-11 -7 -11 -9 0 -14 9 -3 15 1 15 9 0 8 -1 14 -1 14 -1
0 -7 -4 -14 -9z"/>
<path d="M3575 2050 c-10 -17 12 -37 25 -24 8 8 6 15 -4 23 -10 9 -16 9 -21 1z"/>
<path d="M4882 1282 c-21 -3 -23 -8 -20 -55 l3 -52 53 -3 52 -3 0 55 c0 31 -3
57 -7 57 -28 4 -61 5 -81 1z"/>
<path d="M4654 1266 c-3 -8 -4 -31 -2 -52 l3 -39 58 -3 57 -3 0 56 0 55 -55 0
c-38 0 -57 -4 -61 -14z"/>
<path d="M5070 1224 l0 -55 48 3 47 3 3 53 3 52 -50 0 -51 0 0 -56z"/>
<path d="M4642 1023 l3 -48 263 -3 262 -2 0 50 0 50 -266 0 -265 0 3 -47z"/>
<path d="M4700 866 c0 -3 105 -85 170 -133 14 -10 31 -2 105 52 48 36 91 65
96 65 5 0 9 5 9 10 0 6 -70 10 -190 10 -104 0 -190 -2 -190 -4z"/>
</g>
</svg>
